<svg>

<symbol id="phone" viewBox="0 0 32 32" fill="none" xmlns="http://www.w3.org/2000/svg">
<g clip-path="url(#clip0_6703_634)">
<path d="M26.68 20.5067C25.04 20.5067 23.4533 20.24 21.9733 19.76C21.5067 19.6 20.9867 19.72 20.6267 20.08L18.5333 22.7067C14.76 20.9067 11.2267 17.5067 9.34667 13.6L11.9467 11.3867C12.3067 11.0133 12.4133 10.4933 12.2667 10.0267C11.7733 8.54667 11.52 6.96 11.52 5.32C11.52 4.6 10.92 4 10.2 4H5.58667C4.86667 4 4 4.32 4 5.32C4 17.7067 14.3067 28 26.68 28C27.6267 28 28 27.16 28 26.4267V21.8267C28 21.1067 27.4 20.5067 26.68 20.5067Z" fill="#292929"/>
</g>
<defs>
<clipPath id="clip0_6703_634">
<rect width="32" height="32" fill="white"/>
</clipPath>
</defs>
</symbol>



<svg id="burger-menu" viewBox="0 0 32 32" fill="none" xmlns="http://www.w3.org/2000/svg">
<g clip-path="url(#clip0_6703_637)">
<path d="M4 22.6667C4 23.403 4.59695 24 5.33333 24H26.6667C27.403 24 28 23.403 28 22.6667V22.6667C28 21.9303 27.403 21.3333 26.6667 21.3333H5.33333C4.59695 21.3333 4 21.9303 4 22.6667V22.6667ZM4 16C4 16.7364 4.59695 17.3333 5.33333 17.3333H26.6667C27.403 17.3333 28 16.7364 28 16V16C28 15.2636 27.403 14.6667 26.6667 14.6667H5.33333C4.59695 14.6667 4 15.2636 4 16V16ZM5.33333 8C4.59695 8 4 8.59695 4 9.33333V9.33333C4 10.0697 4.59695 10.6667 5.33333 10.6667H26.6667C27.403 10.6667 28 10.0697 28 9.33333V9.33333C28 8.59695 27.403 8 26.6667 8H5.33333Z" fill="#292929"/>
</g>
<defs>
<clipPath id="clip0_6703_637">
<rect width="32" height="32" fill="white"/>
</clipPath>
</defs>
</svg>

<symbol id="hover" viewBox="0 0 32 32" fill="none" xmlns="http://www.w3.org/2000/svg">
<g clip-path="url(#clip0_6703_630)">
<path d="M4 22.6667C4 23.403 4.59695 24 5.33333 24H14.6667C15.403 24 16 23.403 16 22.6667V22.6667C16 21.9303 15.403 21.3333 14.6667 21.3333H5.33333C4.59695 21.3333 4 21.9303 4 22.6667V22.6667ZM4 16C4 16.7364 4.59695 17.3333 5.33333 17.3333H26.6667C27.403 17.3333 28 16.7364 28 16V16C28 15.2636 27.403 14.6667 26.6667 14.6667H5.33333C4.59695 14.6667 4 15.2636 4 16V16ZM5.33334 8C4.59696 8 4 8.59695 4 9.33333V9.33333C4 10.0697 4.59695 10.6667 5.33333 10.6667H20C20.7364 10.6667 21.3333 10.0697 21.3333 9.33333V9.33333C21.3333 8.59695 20.7364 8 20 8H5.33334Z" fill="#292929"/>
</g>
<defs>
<clipPath id="clip0_6703_630">
<rect width="32" height="32" fill="white"/>
</clipPath>
</defs>
</symbol>


<symbol id="sound-waves"  viewBox="0 0 63 76" fill="none" xmlns="http://www.w3.org/2000/svg">
<rect x="6" y="28" width="3" height="20" rx="1.5" fill="#292929"/>
<rect y="33" width="3" height="10" rx="1.5" fill="#292929"/>
<rect x="60" y="33" width="3" height="10" rx="1.5" fill="#292929"/>
<rect x="12" y="25" width="3" height="26" rx="1.5" fill="#292929"/>
<rect x="18" y="16" width="3" height="44" rx="1.5" fill="#292929"/>
<rect x="24" y="22" width="3" height="32" rx="1.5" fill="#292929"/>
<rect x="30" y="6" width="3" height="64" rx="1.5" fill="#292929"/>
<rect x="36" width="3" height="76" rx="1.5" fill="#292929"/>
<rect x="42" y="16" width="3" height="44" rx="1.5" fill="#292929"/>
<rect x="48" y="23" width="3" height="30" rx="1.5" fill="#292929"/>
<rect x="54" y="27" width="3" height="22" rx="1.5" fill="#292929"/>
</symbol>

<symbol id="cross" viewBox="0 0 16 16" fill="none" xmlns="http://www.w3.org/2000/svg">
<path d="M15.1943 2.41714C15.6393 1.97216 15.6393 1.2507 15.1943 0.805714C14.7493 0.36073 14.0278 0.360731 13.5829 0.805714L8 6.38857L2.41714 0.805715C1.97216 0.360732 1.2507 0.36073 0.805714 0.805714C0.36073 1.2507 0.360731 1.97216 0.805714 2.41714L6.38857 8L0.805715 13.5829C0.360732 14.0278 0.36073 14.7493 0.805714 15.1943C1.2507 15.6393 1.97216 15.6393 2.41714 15.1943L8 9.61143L13.5829 15.1943C14.0278 15.6393 14.7493 15.6393 15.1943 15.1943C15.6393 14.7493 15.6393 14.0278 15.1943 13.5829L9.61143 8L15.1943 2.41714Z" fill="#292929"/>
</symbol>


</svg>
